<svg xmlns="http://www.w3.org/2000/svg" viewBox="0 0 752.25 858.18"><defs><style>.cls-1{fill:#47a2db;}.cls-2{fill:none;stroke:#47a2db;stroke-miterlimit:5;stroke-width:20px;}</style></defs><g id="Layer_2" data-name="Layer 2"><g id="Layer_1-2" data-name="Layer 1"><path class="cls-1" d="M714.87,440.92c-27-41.66-62.23-72.26-104.66-90.93-40.45-17.79-107.13-38.68-203.85-63.85-39.94-10.43-56.41-18.59-63.19-23.6-7.1-5.34-9.95-11.49-9.54-20.55.48-10.48,4.43-17.25,12.82-21.94,7.41-4.16,22.35-8.83,51.34-7.51,60.75,2.77,170.16,36.89,201.36,58.81l13.23,9.3L742,124.2l-16.77-10.64c-3.62-2.29-8-5.24-13.1-8.65-22.07-14.81-59-39.6-108.38-61A531.23,531.23,0,0,0,416.27.7c-55.15-2.51-105,1.77-148.11,12.74C224.24,24.61,186,43,154.47,68.13c-7,5.58-13.94,11.62-20.46,17.89a18.58,18.58,0,0,0-2,2.26l-.42,0-5.49,5.65C81,140.32,56.62,197.89,53.55,265a245.06,245.06,0,0,0,9.13,79.73L64.79,352l84.75,43.68,1.77.81c52.66,24.07,132.64,68.32,136,70.19l17.09,9,30.4-53.42c70.26,30.36,229,176.21,349.24,297.86l15.16,15.34,11.89-18c24.83-37.63,38.56-81.74,40.82-131.1q.31-6.84.31-13.55C752.25,523.54,739.7,479.23,714.87,440.92ZM717,584.76c-1.59,34.9-9.67,66.63-24.07,94.61-33.38-33.38-93-91.89-155.12-147.61C438.2,442.46,370.62,394.13,331.18,384l-12.95-3.33-27.33,48c-25.92-14.13-83.73-45.19-125.23-64.16l-.66-.28L94.36,327.85a212.26,212.26,0,0,1-5.84-61.23c2.57-56.43,21.35-103.19,57.36-142.67l101.83,4.65-23.64,28.51c-.83,0-1.66,0-2.5,0a33.89,33.89,0,0,0-31.73,27.36,33.62,33.62,0,1,0,66.32,10.89,33.89,33.89,0,0,0-.49-12l43.48-52.47,130.48,5.95a45,45,0,1,0,6-42.29L192.79,83.53c54.61-36,129.12-52.1,221.88-47.87C552.89,42,644.5,101.73,689.94,132.17L605.29,234.34c-45.86-24.26-144.45-54-205.91-56.76-30.32-1.39-53.23,2.52-70,11.93-19,10.66-29.65,28.26-30.68,50.89-.94,20.57,7.2,37.92,23.54,50.17l.09.07C336.12,300.88,360,310.21,397.53,320c93.59,24.36,160.4,45.23,198.59,62,36.58,16.1,65.82,41.59,89.38,77.93C708.54,495.5,719.13,537.49,717,584.76Zm-477.5-394A16.44,16.44,0,1,1,223,174.29,16.43,16.43,0,0,1,239.47,190.72ZM448.19,121.3A23.66,23.66,0,1,1,471.85,145,23.65,23.65,0,0,1,448.19,121.3Z"/><path class="cls-1" d="M673.66,743.16S384.48,470,341.25,462.62l-32.14,65.13S135.55,422.13,81.16,412.52L0,571.62s190.94,8.13,367,121.19l25.5-84.59S651.55,730.62,673.66,743.16Z"/><path class="cls-2" d="M637,773.22,419.14,662.17,391.3,753.56,121.16,641.1,59,755.36S327.79,934.81,637,773.22Z"/></g></g></svg>